<svg xmlns="http://www.w3.org/2000/svg" viewBox="0 0 64 64" fill="none">
  <path d="M32 12 L35 18 L42 19 L38 25 L39 32 L32 29 L25 32 L26 25 L22 19 L29 18 Z" fill="#607D8B" stroke="#37474F" stroke-width="2"/>
  <circle cx="32" cy="24" r="6" fill="#78909C" stroke="#455A64" stroke-width="2"/>
  <circle cx="32" cy="24" r="3" fill="#CFD8DC"/>
  <path d="M20 35 L23 41 L30 42 L26 48 L27 55 L20 52 L13 55 L14 48 L10 42 L17 41 Z" fill="#607D8B" stroke="#37474F" stroke-width="2"/>
  <circle cx="20" cy="45" r="6" fill="#78909C" stroke="#455A64" stroke-width="2"/>
  <circle cx="20" cy="45" r="3" fill="#CFD8DC"/>
  <path d="M44 35 L47 41 L54 42 L50 48 L51 55 L44 52 L37 55 L38 48 L34 42 L41 41 Z" fill="#607D8B" stroke="#37474F" stroke-width="2"/>
  <circle cx="44" cy="45" r="6" fill="#78909C" stroke="#455A64" stroke-width="2"/>
  <circle cx="44" cy="45" r="3" fill="#CFD8DC"/>
</svg>
